<mxfile host="app.diagrams.net" agent="Mozilla/5.0 (Windows NT 10.0; Win64; x64) AppleWebKit/537.36 (KHTML, like Gecko) Chrome/141.0.0.0 Safari/537.36" version="28.2.8">
  <diagram name="Página-1" id="H5fe7wY9h4Ezs5MnCX7e">
    <mxGraphModel dx="1204" dy="553" grid="1" gridSize="10" guides="1" tooltips="1" connect="1" arrows="1" fold="1" page="1" pageScale="1" pageWidth="827" pageHeight="1169" math="0" shadow="0">
      <root>
        <mxCell id="0" />
        <mxCell id="1" parent="0" />
        <mxCell id="exJRUE8tCX5CORako4Ta-4" value="" style="edgeStyle=orthogonalEdgeStyle;rounded=0;orthogonalLoop=1;jettySize=auto;html=1;" edge="1" parent="1" source="exJRUE8tCX5CORako4Ta-1" target="exJRUE8tCX5CORako4Ta-3">
          <mxGeometry relative="1" as="geometry" />
        </mxCell>
        <mxCell id="exJRUE8tCX5CORako4Ta-1" value="inicio" style="strokeWidth=2;html=1;shape=mxgraph.flowchart.terminator;whiteSpace=wrap;" vertex="1" parent="1">
          <mxGeometry x="130" y="20" width="100" height="60" as="geometry" />
        </mxCell>
        <mxCell id="exJRUE8tCX5CORako4Ta-6" value="" style="edgeStyle=orthogonalEdgeStyle;rounded=0;orthogonalLoop=1;jettySize=auto;html=1;" edge="1" parent="1" source="exJRUE8tCX5CORako4Ta-2" target="exJRUE8tCX5CORako4Ta-5">
          <mxGeometry relative="1" as="geometry" />
        </mxCell>
        <mxCell id="exJRUE8tCX5CORako4Ta-2" value="inicio" style="strokeWidth=2;html=1;shape=mxgraph.flowchart.terminator;whiteSpace=wrap;" vertex="1" parent="1">
          <mxGeometry x="530" y="25" width="100" height="60" as="geometry" />
        </mxCell>
        <mxCell id="exJRUE8tCX5CORako4Ta-9" value="" style="edgeStyle=orthogonalEdgeStyle;rounded=0;orthogonalLoop=1;jettySize=auto;html=1;" edge="1" parent="1" source="exJRUE8tCX5CORako4Ta-3" target="exJRUE8tCX5CORako4Ta-7">
          <mxGeometry relative="1" as="geometry" />
        </mxCell>
        <mxCell id="exJRUE8tCX5CORako4Ta-3" value="cadeia texto&lt;div&gt;inteiro contador&lt;/div&gt;" style="rounded=1;whiteSpace=wrap;html=1;absoluteArcSize=1;arcSize=14;strokeWidth=2;" vertex="1" parent="1">
          <mxGeometry x="105" y="120" width="150" height="60" as="geometry" />
        </mxCell>
        <mxCell id="exJRUE8tCX5CORako4Ta-11" value="" style="edgeStyle=orthogonalEdgeStyle;rounded=0;orthogonalLoop=1;jettySize=auto;html=1;" edge="1" parent="1" source="exJRUE8tCX5CORako4Ta-5" target="exJRUE8tCX5CORako4Ta-10">
          <mxGeometry relative="1" as="geometry" />
        </mxCell>
        <mxCell id="exJRUE8tCX5CORako4Ta-5" value="inteiro contador" style="rounded=1;whiteSpace=wrap;html=1;absoluteArcSize=1;arcSize=14;strokeWidth=2;" vertex="1" parent="1">
          <mxGeometry x="530" y="125" width="100" height="50" as="geometry" />
        </mxCell>
        <mxCell id="exJRUE8tCX5CORako4Ta-12" value="" style="edgeStyle=orthogonalEdgeStyle;rounded=0;orthogonalLoop=1;jettySize=auto;html=1;" edge="1" parent="1" source="exJRUE8tCX5CORako4Ta-7" target="exJRUE8tCX5CORako4Ta-8">
          <mxGeometry relative="1" as="geometry" />
        </mxCell>
        <mxCell id="exJRUE8tCX5CORako4Ta-7" value="texto = &quot;É PIQUE&quot;" style="rounded=1;whiteSpace=wrap;html=1;absoluteArcSize=1;arcSize=14;strokeWidth=2;" vertex="1" parent="1">
          <mxGeometry x="102" y="210" width="155" height="50" as="geometry" />
        </mxCell>
        <mxCell id="exJRUE8tCX5CORako4Ta-15" value="" style="edgeStyle=orthogonalEdgeStyle;rounded=0;orthogonalLoop=1;jettySize=auto;html=1;" edge="1" parent="1" source="exJRUE8tCX5CORako4Ta-8" target="exJRUE8tCX5CORako4Ta-13">
          <mxGeometry relative="1" as="geometry" />
        </mxCell>
        <mxCell id="exJRUE8tCX5CORako4Ta-8" value="contador = 1" style="rounded=1;whiteSpace=wrap;html=1;absoluteArcSize=1;arcSize=14;strokeWidth=2;" vertex="1" parent="1">
          <mxGeometry x="102" y="290" width="155" height="40" as="geometry" />
        </mxCell>
        <mxCell id="exJRUE8tCX5CORako4Ta-16" value="" style="edgeStyle=orthogonalEdgeStyle;rounded=0;orthogonalLoop=1;jettySize=auto;html=1;" edge="1" parent="1" source="exJRUE8tCX5CORako4Ta-10" target="exJRUE8tCX5CORako4Ta-14">
          <mxGeometry relative="1" as="geometry" />
        </mxCell>
        <mxCell id="exJRUE8tCX5CORako4Ta-10" value="contador = 1" style="rounded=1;whiteSpace=wrap;html=1;absoluteArcSize=1;arcSize=14;strokeWidth=2;" vertex="1" parent="1">
          <mxGeometry x="502.5" y="295" width="155" height="40" as="geometry" />
        </mxCell>
        <mxCell id="exJRUE8tCX5CORako4Ta-19" value="" style="edgeStyle=orthogonalEdgeStyle;rounded=0;orthogonalLoop=1;jettySize=auto;html=1;" edge="1" parent="1" source="exJRUE8tCX5CORako4Ta-13" target="exJRUE8tCX5CORako4Ta-17">
          <mxGeometry relative="1" as="geometry" />
        </mxCell>
        <mxCell id="exJRUE8tCX5CORako4Ta-13" value="contador &amp;lt;= 5" style="strokeWidth=2;html=1;shape=mxgraph.flowchart.decision;whiteSpace=wrap;" vertex="1" parent="1">
          <mxGeometry x="119.25" y="370" width="120.5" height="100" as="geometry" />
        </mxCell>
        <mxCell id="exJRUE8tCX5CORako4Ta-20" value="" style="edgeStyle=orthogonalEdgeStyle;rounded=0;orthogonalLoop=1;jettySize=auto;html=1;" edge="1" parent="1" source="exJRUE8tCX5CORako4Ta-14" target="exJRUE8tCX5CORako4Ta-18">
          <mxGeometry relative="1" as="geometry" />
        </mxCell>
        <mxCell id="exJRUE8tCX5CORako4Ta-14" value="contador &amp;lt;= 5" style="strokeWidth=2;html=1;shape=mxgraph.flowchart.decision;whiteSpace=wrap;" vertex="1" parent="1">
          <mxGeometry x="519.75" y="375" width="120.5" height="100" as="geometry" />
        </mxCell>
        <mxCell id="exJRUE8tCX5CORako4Ta-22" value="" style="edgeStyle=orthogonalEdgeStyle;rounded=0;orthogonalLoop=1;jettySize=auto;html=1;" edge="1" parent="1" source="exJRUE8tCX5CORako4Ta-17" target="exJRUE8tCX5CORako4Ta-21">
          <mxGeometry relative="1" as="geometry" />
        </mxCell>
        <mxCell id="exJRUE8tCX5CORako4Ta-17" value="texto" style="strokeWidth=2;html=1;shape=mxgraph.flowchart.display;whiteSpace=wrap;" vertex="1" parent="1">
          <mxGeometry x="130" y="500" width="100" height="60" as="geometry" />
        </mxCell>
        <mxCell id="exJRUE8tCX5CORako4Ta-24" value="" style="edgeStyle=orthogonalEdgeStyle;rounded=0;orthogonalLoop=1;jettySize=auto;html=1;" edge="1" parent="1" source="exJRUE8tCX5CORako4Ta-18" target="exJRUE8tCX5CORako4Ta-23">
          <mxGeometry relative="1" as="geometry" />
        </mxCell>
        <mxCell id="exJRUE8tCX5CORako4Ta-18" value="&quot;É PIQUE&quot;" style="strokeWidth=2;html=1;shape=mxgraph.flowchart.display;whiteSpace=wrap;" vertex="1" parent="1">
          <mxGeometry x="530" y="505" width="100" height="60" as="geometry" />
        </mxCell>
        <mxCell id="exJRUE8tCX5CORako4Ta-21" value="contador = contador + 1" style="rounded=1;whiteSpace=wrap;html=1;absoluteArcSize=1;arcSize=14;strokeWidth=2;" vertex="1" parent="1">
          <mxGeometry x="101" y="590" width="160" height="50" as="geometry" />
        </mxCell>
        <mxCell id="exJRUE8tCX5CORako4Ta-23" value="contador = contador + 1" style="rounded=1;whiteSpace=wrap;html=1;absoluteArcSize=1;arcSize=14;strokeWidth=2;" vertex="1" parent="1">
          <mxGeometry x="500" y="590" width="160" height="50" as="geometry" />
        </mxCell>
        <mxCell id="exJRUE8tCX5CORako4Ta-25" style="edgeStyle=orthogonalEdgeStyle;rounded=0;orthogonalLoop=1;jettySize=auto;html=1;entryX=0;entryY=0.5;entryDx=0;entryDy=0;entryPerimeter=0;" edge="1" parent="1" source="exJRUE8tCX5CORako4Ta-21" target="exJRUE8tCX5CORako4Ta-13">
          <mxGeometry relative="1" as="geometry">
            <Array as="points">
              <mxPoint x="81" y="615" />
              <mxPoint x="81" y="420" />
            </Array>
          </mxGeometry>
        </mxCell>
        <mxCell id="exJRUE8tCX5CORako4Ta-26" value="verdadeiro" style="text;html=1;whiteSpace=wrap;strokeColor=none;fillColor=none;align=center;verticalAlign=middle;rounded=0;" vertex="1" parent="1">
          <mxGeometry x="110" y="470" width="60" height="30" as="geometry" />
        </mxCell>
        <mxCell id="exJRUE8tCX5CORako4Ta-27" style="edgeStyle=orthogonalEdgeStyle;rounded=0;orthogonalLoop=1;jettySize=auto;html=1;entryX=0;entryY=0.5;entryDx=0;entryDy=0;entryPerimeter=0;" edge="1" parent="1" source="exJRUE8tCX5CORako4Ta-23" target="exJRUE8tCX5CORako4Ta-14">
          <mxGeometry relative="1" as="geometry">
            <Array as="points">
              <mxPoint x="480" y="615" />
              <mxPoint x="480" y="425" />
            </Array>
          </mxGeometry>
        </mxCell>
        <mxCell id="exJRUE8tCX5CORako4Ta-28" value="verdadeiro" style="text;html=1;whiteSpace=wrap;strokeColor=none;fillColor=none;align=center;verticalAlign=middle;rounded=0;" vertex="1" parent="1">
          <mxGeometry x="510" y="470" width="60" height="30" as="geometry" />
        </mxCell>
        <mxCell id="exJRUE8tCX5CORako4Ta-29" value="fim" style="strokeWidth=2;html=1;shape=mxgraph.flowchart.terminator;whiteSpace=wrap;" vertex="1" parent="1">
          <mxGeometry x="129.5" y="680" width="100" height="60" as="geometry" />
        </mxCell>
        <mxCell id="exJRUE8tCX5CORako4Ta-30" value="fim" style="strokeWidth=2;html=1;shape=mxgraph.flowchart.terminator;whiteSpace=wrap;" vertex="1" parent="1">
          <mxGeometry x="530" y="680" width="100" height="60" as="geometry" />
        </mxCell>
        <mxCell id="exJRUE8tCX5CORako4Ta-31" style="edgeStyle=orthogonalEdgeStyle;rounded=0;orthogonalLoop=1;jettySize=auto;html=1;entryX=1;entryY=0.5;entryDx=0;entryDy=0;entryPerimeter=0;" edge="1" parent="1" source="exJRUE8tCX5CORako4Ta-13" target="exJRUE8tCX5CORako4Ta-29">
          <mxGeometry relative="1" as="geometry">
            <Array as="points">
              <mxPoint x="290" y="420" />
              <mxPoint x="290" y="710" />
            </Array>
          </mxGeometry>
        </mxCell>
        <mxCell id="exJRUE8tCX5CORako4Ta-32" value="falso" style="text;html=1;whiteSpace=wrap;strokeColor=none;fillColor=none;align=center;verticalAlign=middle;rounded=0;" vertex="1" parent="1">
          <mxGeometry x="220" y="390" width="60" height="30" as="geometry" />
        </mxCell>
        <mxCell id="exJRUE8tCX5CORako4Ta-33" style="edgeStyle=orthogonalEdgeStyle;rounded=0;orthogonalLoop=1;jettySize=auto;html=1;entryX=1;entryY=0.5;entryDx=0;entryDy=0;entryPerimeter=0;" edge="1" parent="1" source="exJRUE8tCX5CORako4Ta-14" target="exJRUE8tCX5CORako4Ta-30">
          <mxGeometry relative="1" as="geometry">
            <Array as="points">
              <mxPoint x="700" y="425" />
              <mxPoint x="700" y="710" />
            </Array>
          </mxGeometry>
        </mxCell>
        <mxCell id="exJRUE8tCX5CORako4Ta-34" value="falso" style="text;html=1;whiteSpace=wrap;strokeColor=none;fillColor=none;align=center;verticalAlign=middle;rounded=0;" vertex="1" parent="1">
          <mxGeometry x="640.25" y="390" width="60" height="30" as="geometry" />
        </mxCell>
      </root>
    </mxGraphModel>
  </diagram>
</mxfile>
